# xmcd
#
# Track frame offsets:
# 150
# 14085
# 29525
# 49307
# 66565
# 81632
# 100830
# 119780
# 136742
# 154160
# 172747
# 191945
#
# Disc length: 2787 seconds
#
# Revision: 65536
# Processed by: cddbd v1.5.1PL0 Copyright (c) Steve Scherf et al.
# Submitted via: CoinsHifi 1.0 coinshifi@hotmail.fr
#
DISCID=b40ae10c
DTITLE=Miranda Lambert - Kerosene
DYEAR=2005
DGENRE=Country
TTITLE0=Kerosene
TTITLE1=What About Georgia ?
TTITLE2=Greyhound Bound For Nowhere
TTITLE3=New Strings
TTITLE4=I Can't Be Bothered
TTITLE5=Bring Me Down
TTITLE6=Me And Charlie Talking
TTITLE7=I Wanna Die
TTITLE8=Love Is Looking For You
TTITLE9=Mama, I'm Alright
TTITLE10=There's A Wall
TTITLE11=Love Your Memory
EXTD=
EXTT0=
EXTT1=
EXTT2=
EXTT3=
EXTT4=
EXTT5=
EXTT6=
EXTT7=
EXTT8=
EXTT9=
EXTT10=
EXTT11=
PLAYORDER=
